<?xml version="1.0" standalone="no"?>
<!DOCTYPE svg PUBLIC "-//W3C//DTD SVG 20010904//EN"
 "http://www.w3.org/TR/2001/REC-SVG-20010904/DTD/svg10.dtd">
<svg version="1.0" xmlns="http://www.w3.org/2000/svg"
 width="4000.000000pt" height="4000.000000pt" viewBox="0 0 4000.000000 4000.000000"
 preserveAspectRatio="xMidYMid meet">
<metadata>
Created by potrace 1.14, written by Peter Selinger 2001-2017
</metadata>
<g transform="translate(0.000000,4000.000000) scale(0.100000,-0.100000)"
fill="#000000" stroke="none">
<path d="M0 20000 l0 -20000 20000 0 20000 0 0 20000 0 20000 -20000 0 -20000
0 0 -20000z m35769 18145 c16 -8 30 -13 32 -12 2 1 3 1 3 -1 -1 -2 9 -15 22
-29 41 -44 45 -136 7 -187 -32 -43 -72 -60 -158 -64 -44 -2 -99 1 -122 7 -121
33 -160 159 -77 251 41 45 48 47 172 49 64 1 102 -4 121 -14z m-20584 -479
c45 -19 129 -98 149 -141 34 -72 4 -160 -68 -194 -79 -39 -136 -20 -223 72
-57 60 -68 88 -60 147 6 50 32 85 82 110 47 24 74 25 120 6z m-7255 -74 c104
-52 108 -191 7 -266 -25 -18 -42 -21 -142 -21 -99 0 -117 3 -141 21 -95 70
-97 193 -5 258 33 24 44 26 141 26 80 0 113 -4 140 -18z m11808 -762 c46 -28
76 -97 66 -153 -9 -57 -64 -112 -121 -121 -57 -10 -122 19 -153 68 -32 53 -25
134 16 177 16 17 38 35 49 39 38 16 109 11 143 -10z m8142 -1156 c67 -27 100
-93 85 -170 -9 -50 -113 -160 -166 -175 -111 -34 -219 68 -190 179 7 25 31 58
73 99 87 86 122 97 198 67z m-22732 -28 c40 -37 106 -159 117 -218 4 -22 2
-52 -6 -75 -7 -21 -12 -42 -11 -46 1 -5 -2 -6 -7 -3 -5 3 -11 0 -14 -7 -8 -22
-72 -47 -119 -47 -72 0 -102 26 -158 142 -55 111 -61 151 -32 208 26 52 74 80
138 80 47 0 59 -4 92 -34z m26733 -1220 c86 -58 90 -171 10 -239 -95 -80 -240
-9 -241 118 0 115 135 186 231 121z m-7796 -1077 c55 -16 102 -68 110 -124 9
-55 -23 -119 -74 -149 -51 -30 -163 -29 -212 2 -49 30 -73 81 -67 144 11 105
119 161 243 127z m-9821 -92 c58 -45 73 -146 32 -210 -19 -28 -188 -115 -242
-124 -45 -7 -119 28 -144 69 -27 42 -24 135 6 174 17 23 157 104 203 118 40
12 111 -2 145 -27z m-3654 -1498 c44 -27 57 -44 70 -91 17 -59 -2 -111 -63
-175 -68 -72 -97 -86 -164 -81 -44 4 -60 11 -87 37 -40 38 -57 96 -46 147 10
43 91 139 140 165 46 25 107 24 150 -2z m10035 -18 c125 -26 299 -83 390 -129
152 -75 326 -212 464 -365 101 -111 132 -156 171 -242 21 -47 38 -71 61 -83
33 -18 202 -266 414 -607 64 -104 125 -201 134 -215 10 -14 20 -32 24 -40 4
-8 21 -35 37 -60 16 -25 39 -63 51 -85 12 -22 30 -51 39 -65 10 -14 89 -142
176 -285 87 -143 207 -341 267 -440 61 -99 165 -270 232 -380 67 -110 140
-229 163 -265 22 -36 73 -117 112 -180 63 -102 190 -305 269 -430 15 -25 90
-144 166 -265 143 -227 410 -647 598 -940 25 -38 75 -117 112 -175 37 -58 91
-141 120 -185 28 -44 77 -118 107 -165 124 -191 217 -333 313 -480 56 -85 155
-236 220 -335 284 -433 1077 -1612 1289 -1917 41 -59 117 -169 168 -245 52
-76 166 -241 254 -367 87 -126 175 -252 194 -280 20 -28 90 -127 156 -221 67
-93 133 -188 147 -210 15 -22 70 -101 122 -175 52 -74 112 -160 133 -190 21
-30 105 -149 187 -265 132 -186 205 -295 490 -730 40 -60 133 -202 207 -315
175 -266 341 -520 399 -612 64 -100 249 -407 249 -413 0 -3 15 -28 33 -57 51
-80 219 -408 272 -531 112 -259 149 -404 149 -582 1 -144 -9 -185 -71 -309
-73 -146 -253 -346 -438 -486 -55 -41 -147 -120 -205 -176 -58 -55 -173 -162
-257 -238 -84 -75 -187 -171 -230 -214 -74 -73 -115 -105 -275 -215 -156 -107
-259 -179 -418 -291 -52 -36 -120 -83 -150 -104 -59 -40 -309 -217 -750 -532
-257 -184 -404 -290 -675 -486 -60 -44 -234 -170 -385 -279 -151 -110 -293
-213 -316 -230 -22 -16 -145 -106 -273 -200 -128 -93 -306 -224 -395 -290 -90
-66 -234 -172 -321 -235 -252 -184 -461 -337 -586 -429 -64 -47 -178 -131
-254 -186 -76 -55 -165 -121 -199 -146 -74 -55 -354 -258 -641 -463 -316 -226
-320 -229 -885 -624 -281 -196 -449 -317 -578 -417 -223 -172 -458 -313 -682
-408 -178 -75 -323 -107 -484 -107 -178 0 -306 33 -479 124 -127 66 -110 49
-472 476 -198 236 -630 762 -740 905 -38 50 -117 149 -175 221 -280 349 -729
939 -1148 1509 -106 143 -219 297 -252 342 -72 98 -332 460 -483 673 -61 85
-127 178 -148 205 -20 28 -150 212 -288 410 -138 198 -279 400 -313 449 -99
141 -412 605 -612 906 -361 543 -508 770 -696 1070 -41 66 -157 249 -257 408
-170 269 -231 368 -566 922 -122 200 -194 322 -322 545 -28 50 -96 167 -150
260 -54 94 -112 195 -128 225 -17 30 -41 72 -54 92 -13 21 -23 40 -23 43 0 3
-10 22 -23 43 -13 20 -37 62 -54 92 -16 30 -68 123 -115 205 -46 83 -99 177
-117 210 -107 195 -296 546 -348 645 -270 514 -427 820 -587 1145 -74 149
-215 434 -315 634 -100 201 -186 385 -192 410 -6 25 -24 68 -41 96 -17 27 -43
73 -58 100 -15 28 -55 93 -91 145 -82 122 -142 251 -171 364 -20 80 -21 97
-11 185 25 217 116 392 353 676 196 236 394 428 646 626 120 95 300 238 399
318 1199 969 1694 1347 2445 1868 237 164 599 408 785 528 277 179 429 276
690 437 160 99 306 190 325 203 218 142 1144 681 1650 960 291 161 416 233
460 267 14 11 73 48 131 83 59 35 142 88 186 118 87 62 366 204 513 262 266
106 541 182 750 209 87 11 377 -3 475 -23z m14454 -327 c15 -9 38 -32 51 -52
24 -34 25 -44 28 -211 4 -214 -5 -267 -54 -310 -41 -36 -71 -45 -126 -38 -40
5 -88 41 -110 81 -6 10 -10 108 -10 230 -1 236 4 259 65 296 39 24 118 26 156
4z m-32109 -613 c19 -10 45 -33 58 -52 22 -32 23 -42 20 -156 -3 -113 -5 -123
-28 -149 -70 -76 -193 -70 -249 11 -20 30 -23 45 -22 150 0 111 1 118 27 152
47 62 127 80 194 44z m13970 -285 c-8 -7 -143 -90 -300 -183 -727 -434 -1471
-911 -2130 -1364 -481 -332 -1398 -1014 -1680 -1251 -25 -21 -117 -95 -205
-165 -169 -134 -382 -306 -601 -483 -127 -103 -241 -194 -505 -400 -168 -130
-387 -351 -582 -584 -220 -263 -301 -396 -374 -611 -28 -83 -63 -273 -63 -341
0 -7 -7 -14 -15 -14 -8 0 -15 -5 -15 -11 0 -5 -5 -7 -11 -4 -30 19 -278 -39
-529 -124 -30 -10 -82 -26 -115 -36 -33 -9 -71 -20 -85 -25 -14 -5 -79 -25
-145 -45 -219 -67 -310 -98 -313 -107 -2 -4 -7 -6 -12 -3 -8 5 -68 -14 -435
-139 -288 -98 -665 -235 -675 -246 -3 -3 -12 -6 -20 -7 -8 -1 -46 -13 -85 -28
-38 -14 -83 -30 -100 -34 -70 -19 -402 -160 -547 -232 -87 -44 -159 -79 -162
-79 -2 0 0 21 5 46 45 238 175 419 474 659 153 122 489 361 1070 760 72 49
153 105 181 125 141 97 851 597 1009 711 99 72 304 217 455 324 151 107 374
265 495 351 121 86 268 191 327 233 59 42 180 126 268 186 89 61 194 133 233
160 509 359 1538 1020 2132 1370 318 187 369 216 570 330 105 59 240 136 300
170 323 184 1376 723 1835 941 80 37 188 89 240 115 98 49 138 62 110 35z
m14769 -334 c50 -25 74 -63 79 -124 3 -44 0 -59 -20 -88 -37 -55 -77 -70 -193
-70 -82 0 -106 4 -133 20 -100 61 -95 211 8 262 26 13 59 18 130 18 71 0 104
-5 129 -18z m-24283 -1368 c51 -25 88 -92 81 -151 -6 -53 -29 -88 -82 -124
-21 -14 -50 -44 -64 -65 -52 -77 -156 -104 -220 -56 -67 49 -87 123 -56 200
21 48 139 169 190 193 50 23 106 24 151 3z m19098 -226 c25 -18 101 -78 168
-133 68 -55 140 -113 161 -128 46 -35 67 -74 67 -127 0 -89 -60 -152 -143
-152 -64 0 -99 19 -227 122 -259 210 -276 230 -268 322 5 45 11 57 46 90 37
34 46 38 95 38 46 0 62 -5 101 -32z m11127 -1935 c35 -38 39 -47 39 -96 0 -64
-27 -110 -80 -138 -48 -26 -209 -27 -260 -1 -49 24 -80 75 -80 129 0 54 19 93
62 127 32 26 36 27 156 24 l123 -3 40 -42z m-4466 -1318 c43 -17 59 -53 51
-118 -11 -101 -110 -276 -211 -373 -35 -34 -66 -72 -69 -85 -3 -13 -7 -35 -10
-49 -5 -25 -117 -122 -451 -393 -66 -53 -194 -158 -285 -232 -258 -212 -797
-649 -960 -779 -109 -87 -335 -264 -520 -408 -117 -91 -675 -513 -840 -634
-346 -256 -450 -329 -510 -357 -30 -15 -78 -44 -106 -65 -28 -21 -120 -82
-205 -135 -85 -54 -211 -135 -281 -180 -69 -45 -146 -94 -170 -109 -24 -15
-88 -57 -143 -93 l-100 -66 -6 28 c-8 37 -128 232 -256 416 -57 82 -103 153
-103 158 0 5 26 26 58 46 166 105 740 491 852 573 36 26 124 87 195 135 72 49
135 94 140 100 6 7 75 58 155 114 80 56 227 161 326 234 100 73 237 172 305
222 113 81 205 150 236 175 20 17 267 205 289 220 52 36 333 255 714 555 70
55 167 130 216 168 49 37 109 83 134 103 25 19 88 67 141 107 52 40 133 111
180 156 139 137 381 312 544 393 93 47 267 121 333 143 125 40 298 55 357 30z
m-30197 -2301 c115 -88 55 -268 -89 -268 -107 0 -183 120 -135 212 46 88 148
113 224 56z m31739 -1085 c93 -45 110 -163 35 -242 -32 -33 -155 -96 -205
-104 -47 -7 -97 11 -133 48 -26 28 -29 37 -29 99 0 64 2 72 30 99 38 37 201
121 234 121 13 0 44 -9 68 -21z m4435 -2869 c46 -13 95 -68 104 -117 8 -41 10
-33 -96 -303 -33 -85 -76 -200 -95 -255 -44 -127 -71 -156 -149 -163 -74 -6
-126 25 -151 92 -23 59 -14 96 79 344 130 343 151 381 220 401 42 12 46 12 88
1z m-7862 -488 c73 -36 99 -123 64 -210 -18 -46 -143 -170 -196 -195 -121 -57
-247 37 -223 166 5 27 31 60 105 136 54 56 109 105 122 110 37 15 90 12 128
-7z m-24367 -1646 c99 -42 122 -175 41 -245 -48 -43 -276 -117 -329 -107 -52
10 -111 69 -120 119 -8 43 14 114 45 142 25 23 256 104 298 104 18 1 47 -5 65
-13z m-4107 -345 c142 -64 92 -281 -64 -281 -77 0 -133 47 -147 122 -17 88 56
174 150 177 11 0 38 -8 61 -18z m24699 -1156 c161 -293 488 -846 671 -1137 27
-43 94 -148 148 -235 55 -87 164 -252 242 -366 l142 -209 -14 -35 c-28 -65 5
-156 67 -189 23 -11 48 -15 86 -12 48 4 68 14 186 95 250 171 501 289 685 323
89 16 246 13 317 -5 131 -35 245 -125 303 -241 42 -84 56 -153 49 -248 -10
-159 -72 -260 -239 -388 -203 -157 -610 -394 -793 -462 -210 -77 -418 -74
-594 9 -149 71 -364 252 -568 480 -107 119 -143 165 -143 182 0 9 -13 32 -30
52 -16 21 -55 82 -86 137 -176 305 -303 535 -404 729 -40 77 -96 185 -125 240
-123 234 -517 1009 -537 1057 -6 14 12 31 80 80 48 35 94 68 102 75 8 7 89 66
180 132 120 86 168 115 176 107 6 -6 50 -83 99 -171z m5421 -694 c31 -14 47
-30 63 -63 26 -55 27 -90 0 -144 -22 -46 -82 -84 -132 -84 -103 0 -179 110
-143 205 36 92 121 127 212 86z m-6308 -2542 c101 -49 109 -191 14 -254 l-40
-26 -190 3 c-187 3 -191 3 -217 28 -83 78 -71 200 25 251 30 16 58 19 199 19
148 0 169 -2 209 -21z m11732 -1 c100 -68 105 -191 11 -255 -65 -44 -204 -39
-249 10 -57 61 -63 150 -14 209 36 42 75 57 153 58 52 0 73 -5 99 -22z
m-16336 -640 c72 -121 72 -121 127 -213 57 -94 183 -308 192 -325 9 -18 10
-19 111 -185 44 -72 111 -182 149 -245 38 -63 80 -131 92 -150 47 -75 280
-455 288 -470 10 -19 92 -149 180 -284 l67 -103 -15 -36 c-20 -47 -19 -73 5
-124 24 -55 70 -83 133 -83 57 0 90 16 137 65 45 48 138 114 220 156 64 33 67
34 185 33 171 -1 320 -33 455 -97 119 -57 232 -197 247 -305 5 -38 3 -41 -30
-57 -27 -12 -44 -33 -72 -86 -41 -78 -139 -207 -197 -258 -53 -46 -96 -68
-181 -90 -280 -74 -510 5 -842 290 -342 293 -712 732 -985 1169 -150 241 -202
329 -346 585 -71 127 -179 328 -238 447 l-109 217 33 28 c47 40 313 233 321
233 3 0 37 -51 73 -112z m-17234 -723 c57 -16 100 -79 100 -146 0 -48 -49
-203 -83 -263 -43 -76 -138 -102 -211 -57 -71 44 -84 118 -41 231 13 36 31 90
39 120 9 31 26 66 40 79 27 25 93 52 116 46 8 -2 26 -7 40 -10z m26625 -1645
c63 -24 99 -89 100 -180 0 -111 -53 -170 -153 -170 -60 0 -109 30 -134 81 -23
45 -28 153 -9 197 26 63 125 99 196 72z m6030 -269 c92 -42 126 -141 77 -225
-33 -56 -70 -69 -201 -70 -106 -1 -119 1 -149 22 -90 65 -87 197 6 256 49 31
62 33 152 35 53 0 87 -5 115 -18z m-22391 -1057 c49 -36 70 -116 46 -179 -12
-33 -96 -122 -132 -141 -66 -34 -158 -7 -198 58 -20 33 -25 96 -12 130 10 25
103 128 127 141 54 29 122 25 169 -9z m18566 -532 c51 -25 80 -74 80 -136 0
-94 -59 -150 -153 -148 -114 2 -182 123 -126 222 40 71 127 99 199 62z m-8440
-71 c69 -36 106 -132 78 -199 -21 -50 -213 -238 -275 -268 -71 -35 -123 -27
-175 27 -70 73 -56 175 33 237 44 30 128 116 163 167 36 53 115 69 176 36z
m-23063 -334 c50 -18 221 -192 233 -236 13 -48 13 -54 -6 -101 -28 -70 -106
-107 -184 -88 -29 8 -63 32 -117 81 -120 112 -150 177 -118 253 37 89 108 122
192 91z m1103 -291 c145 -33 224 -63 325 -124 107 -64 267 -195 339 -279 33
-37 63 -67 68 -66 4 2 7 0 6 -5 -2 -4 15 -32 37 -62 51 -69 135 -201 166 -260
l24 -45 90 -6 c100 -7 121 -11 215 -42 59 -20 84 -22 272 -20 161 1 229 6 310
22 57 11 127 24 156 28 l54 8 27 85 c54 166 123 275 260 410 174 171 384 263
632 277 445 25 852 -250 996 -672 54 -158 63 -287 38 -527 -14 -131 -104 -607
-139 -738 -17 -61 -101 -514 -111 -600 -11 -84 -83 -448 -99 -500 -9 -25 -22
-83 -31 -130 -29 -157 -147 -544 -225 -735 -18 -44 -57 -154 -86 -245 -28 -91
-64 -199 -79 -240 -14 -41 -60 -190 -100 -330 -86 -299 -131 -418 -208 -558
-66 -119 -87 -148 -185 -263 -191 -224 -367 -322 -679 -379 -273 -51 -541 -1
-754 139 -41 27 -83 58 -94 68 -52 47 -48 47 -127 -1 -83 -52 -259 -126 -375
-158 -67 -19 -102 -22 -253 -22 -161 0 -182 3 -265 28 -124 37 -235 93 -335
169 -88 67 -225 216 -297 322 -46 67 -130 227 -156 295 l-17 45 -53 -95 c-77
-139 -131 -215 -211 -295 -117 -117 -255 -197 -433 -252 -80 -24 -104 -26
-258 -27 -200 -1 -289 17 -440 90 -272 131 -456 357 -541 664 -27 95 -26 366
0 470 21 83 65 195 96 245 55 89 97 317 110 594 10 225 44 646 60 741 43 268
76 397 176 697 57 171 121 356 143 410 21 54 44 118 50 143 7 25 34 101 61
170 27 69 61 166 76 215 80 268 211 553 346 755 97 144 126 177 237 273 217
189 442 300 670 332 150 22 370 13 511 -19z m8103 -198 c11 -5 63 -54 116
-108 106 -106 119 -133 101 -199 -25 -93 -133 -137 -222 -91 -62 31 -175 146
-194 197 -11 28 -15 59 -11 89 11 98 124 159 210 112z m17333 -689 c134 -34
175 -55 212 -109 43 -64 41 -126 -5 -181 -51 -60 -116 -73 -186 -37 -57 29
-132 48 -190 48 -90 0 -148 50 -155 133 -7 82 26 133 104 161 57 21 81 19 220
-15z m-20634 -1158 c13 -5 35 -21 50 -36 67 -67 53 -169 -32 -249 -56 -53 -85
-66 -141 -66 -97 0 -162 81 -144 177 5 26 25 56 68 101 34 35 71 68 82 73 27
11 88 11 117 0z m10649 -353 c41 -23 79 -84 79 -128 0 -44 -38 -105 -79 -128
-50 -28 -150 -30 -200 -4 -55 27 -76 64 -76 132 0 68 21 105 76 132 50 26 150
24 200 -4z m11881 -829 c38 -28 60 -72 60 -124 0 -84 -35 -122 -206 -224 -220
-133 -256 -145 -328 -113 -109 48 -119 204 -17 260 104 58 268 158 289 178 61
56 142 65 202 23z m-16325 -1158 c177 -87 278 -146 300 -173 7 -8 17 -34 24
-59 11 -39 10 -50 -9 -91 -40 -92 -132 -114 -233 -58 -51 29 -320 163 -384
192 -33 15 -75 86 -75 127 0 48 38 108 83 130 72 36 98 29 294 -68z m22201 5
c68 -35 97 -101 80 -180 -14 -69 -62 -109 -172 -146 -158 -52 -263 -34 -305
54 -25 51 -26 73 -5 126 22 55 61 80 140 90 43 5 78 17 102 33 20 14 44 27 52
30 29 10 81 7 108 -7z m-12582 -168 c32 -31 38 -44 42 -92 4 -48 1 -62 -21
-95 -42 -63 -83 -73 -278 -69 -153 3 -166 5 -197 26 -81 58 -86 184 -8 242 37
28 50 29 238 27 l188 -2 36 -37z m-15685 -1479 c51 -17 77 -46 122 -134 45
-90 53 -155 24 -212 -23 -45 -81 -77 -136 -77 -62 0 -105 27 -132 83 -12 26
-35 71 -50 102 -32 63 -36 103 -14 155 31 74 109 108 186 83z"/>
<path d="M20165 30739 c-123 -30 -404 -152 -450 -196 -11 -10 -63 -47 -115
-83 -52 -35 -106 -71 -120 -80 -14 -9 -54 -36 -90 -60 -36 -24 -1512 -1008
-3280 -2188 -1768 -1180 -3234 -2151 -3257 -2159 -49 -17 -83 -49 -162 -153
-161 -211 -268 -435 -315 -665 -62 -298 0 -663 170 -1009 76 -153 204 -362
288 -469 39 -51 101 -137 136 -192 36 -54 115 -175 175 -267 61 -92 182 -278
270 -413 88 -136 199 -306 246 -378 165 -251 335 -512 370 -566 18 -29 102
-158 186 -285 192 -294 318 -486 429 -656 79 -122 149 -230 312 -480 262 -402
377 -550 558 -722 106 -101 252 -200 359 -245 241 -102 643 -49 999 131 136
69 245 143 281 191 15 18 242 178 542 379 285 191 653 438 818 549 165 112
494 332 730 491 237 159 504 340 595 401 91 61 332 223 535 360 204 137 437
294 518 349 82 56 166 112 188 126 21 14 123 82 227 152 336 227 1436 967
1907 1282 283 190 479 329 510 360 28 28 95 83 150 123 260 185 357 300 401
473 31 121 7 303 -61 475 -66 168 -214 442 -341 634 -56 86 -2398 3598 -2526
3789 -71 105 -133 192 -137 192 -5 0 -28 26 -52 58 -24 31 -53 66 -64 77 -12
11 -76 92 -142 180 -230 304 -348 414 -508 475 -68 25 -214 36 -280 19z m225
-272 c68 -31 227 -197 383 -402 143 -187 208 -269 256 -320 30 -32 2574 -3838
2584 -3866 3 -9 28 -47 55 -85 116 -160 294 -504 343 -664 32 -105 32 -216 -1
-285 -31 -64 -131 -163 -246 -242 -49 -34 -111 -79 -138 -100 -27 -21 -61 -45
-76 -53 -15 -8 -61 -46 -101 -83 -45 -41 -245 -183 -514 -363 -722 -485 -1083
-727 -1620 -1089 -280 -189 -674 -454 -875 -588 -201 -135 -513 -345 -695
-467 -181 -123 -618 -416 -970 -653 -352 -237 -728 -490 -835 -562 -107 -72
-401 -270 -652 -439 -251 -168 -467 -320 -480 -336 -41 -52 -250 -136 -433
-174 -245 -51 -396 -19 -585 123 -82 62 -245 229 -333 342 -54 70 -302 443
-652 979 -23 36 -77 119 -120 185 -43 66 -133 203 -199 305 -67 102 -157 240
-201 308 -44 67 -225 344 -402 615 -177 270 -428 656 -559 857 -130 201 -249
379 -264 395 -74 82 -197 277 -281 445 -251 505 -224 951 84 1375 l51 70 3506
2337 c1928 1285 3538 2353 3578 2373 200 98 284 112 392 62z"/>
<path d="M20001 28550 c-274 -48 -474 -231 -551 -506 -20 -76 -21 -89 -12
-195 19 -199 79 -320 224 -446 129 -112 334 -175 496 -152 158 22 281 80 387
184 117 113 175 228 200 392 12 80 12 104 0 175 -18 103 -30 138 -69 212 -98
184 -282 312 -491 340 -27 4 -57 9 -65 10 -8 2 -62 -4 -119 -14z"/>
<path d="M18799 26602 c-20 -10 -353 -243 -740 -519 -387 -275 -714 -506 -727
-514 -54 -32 -79 -138 -47 -199 29 -57 139 -90 195 -60 12 6 168 116 348 244
180 128 500 355 712 506 212 150 402 289 422 308 49 46 59 100 30 165 -11 25
-32 53 -46 62 -40 27 -105 30 -147 7z"/>
<path d="M15393 25510 c-274 -47 -475 -229 -549 -499 -21 -75 -23 -99 -18
-186 19 -305 211 -530 512 -601 130 -31 309 -11 424 47 164 82 301 240 348
399 35 121 41 197 24 294 -32 185 -121 333 -259 431 -101 72 -178 100 -360
129 -11 2 -66 -4 -122 -14z"/>
<path d="M23545 23536 c-81 -20 -143 -57 -204 -122 -162 -173 -172 -468 -24
-732 109 -193 278 -331 463 -378 89 -22 235 -15 305 15 199 88 298 299 260
555 -41 270 -231 527 -462 624 -121 51 -233 64 -338 38z"/>
<path d="M21024 21601 c-11 -5 -106 -65 -210 -133 -104 -69 -223 -146 -264
-173 -41 -27 -148 -96 -237 -154 -147 -96 -313 -203 -523 -339 -138 -89 -464
-301 -701 -456 -85 -55 -200 -130 -255 -165 -114 -74 -293 -190 -409 -266 -44
-29 -210 -137 -370 -240 -428 -277 -491 -318 -695 -452 -102 -66 -230 -150
-285 -186 -388 -250 -383 -246 -401 -292 -25 -68 -42 -36 278 -525 74 -113
147 -226 162 -252 52 -90 126 -129 195 -104 20 7 86 46 148 87 61 41 151 99
200 131 48 31 252 163 453 293 201 131 411 267 468 304 56 36 193 125 305 198
111 72 267 174 347 226 80 52 321 208 535 347 215 139 428 278 475 308 257
167 957 622 1033 671 331 213 361 235 385 281 12 24 22 56 22 70 0 28 -41 99
-178 307 -48 73 -138 212 -201 309 -63 96 -125 182 -138 191 -28 19 -109 27
-139 14z"/>
<path d="M26565 20786 c-99 -23 -193 -74 -261 -142 -34 -34 -73 -64 -87 -68
-14 -3 -45 -28 -69 -54 -130 -147 -228 -424 -214 -607 10 -114 31 -195 76
-293 69 -147 160 -242 300 -312 186 -93 461 -73 617 46 18 13 55 29 83 34 28
5 84 25 126 44 88 41 192 139 237 224 99 184 98 445 -1 662 -58 127 -191 281
-313 362 -142 94 -348 138 -494 104z m265 -276 c150 -64 259 -180 324 -343 15
-38 25 -75 22 -83 -3 -7 -1 -16 4 -19 15 -9 12 -142 -4 -200 -18 -68 -38 -104
-83 -147 -106 -103 -273 -105 -429 -7 -102 65 -198 186 -245 308 -31 81 -38
230 -13 307 30 97 108 178 194 203 57 16 168 7 230 -19z"/>
<path d="M23744 20510 c-12 -4 -31 -21 -43 -36 -28 -36 -28 -106 4 -664 13
-239 32 -572 40 -740 18 -332 23 -358 76 -386 59 -30 112 -16 219 59 134 93
916 629 1123 769 94 65 180 130 189 145 11 17 18 48 18 77 0 46 -3 52 -49 95
-27 25 -70 55 -97 65 -27 11 -89 39 -139 62 -49 23 -155 71 -235 107 -80 36
-176 80 -215 97 -38 18 -140 63 -225 102 -85 38 -192 87 -238 109 -46 21 -85
39 -87 39 -2 0 -32 13 -67 29 -182 84 -218 94 -274 71z m747 -569 c96 -43 208
-94 249 -113 41 -19 114 -52 162 -73 47 -22 84 -43 82 -47 -12 -19 -306 -208
-316 -202 -6 4 -8 3 -4 -4 5 -9 -175 -142 -286 -210 l-37 -22 -5 42 c-3 24
-10 149 -16 278 -6 129 -13 279 -17 333 -3 60 -2 97 4 97 5 0 88 -35 184 -79z"/>
<path d="M25838 18949 c-176 -26 -377 -109 -495 -205 -23 -19 -66 -43 -96 -53
-279 -96 -514 -355 -613 -676 -53 -174 -33 -375 55 -555 60 -121 168 -258 279
-353 69 -59 246 -178 323 -217 84 -43 245 -96 332 -110 257 -42 533 60 730
269 36 39 75 88 86 110 11 21 42 55 68 74 71 52 195 183 242 257 132 204 191
445 162 665 -40 299 -210 548 -471 688 -106 57 -188 84 -310 102 -103 16 -202
17 -292 4z"/>
<path d="M19972 17980 c-21 -9 -54 -30 -347 -222 -137 -90 -155 -110 -155
-175 0 -36 16 -68 103 -204 119 -187 137 -217 132 -230 -4 -8 -32 -34 -63 -59
-31 -25 -97 -79 -147 -121 -49 -42 -105 -84 -122 -93 -39 -20 -63 -62 -63
-111 0 -45 -2 -42 146 -267 142 -215 143 -216 262 -200 66 10 74 14 238 131
l169 121 17 -22 c10 -13 23 -34 30 -48 7 -14 54 -92 103 -172 81 -132 95 -150
139 -174 38 -21 57 -25 95 -22 40 4 70 23 251 153 113 82 222 162 242 178 42
33 63 84 54 128 -5 28 -84 177 -200 379 -14 25 -26 48 -26 53 0 4 64 54 143
111 184 135 204 154 213 201 6 36 -2 56 -107 263 -123 244 -138 262 -212 262
-45 0 -33 6 -273 -136 -104 -62 -197 -116 -206 -119 -13 -5 -42 32 -127 162
-130 198 -138 210 -171 222 -41 16 -93 21 -118 11z m144 -476 c105 -161 117
-175 165 -200 37 -18 62 -25 84 -21 17 3 122 60 233 126 111 67 206 121 212
121 12 0 83 -137 78 -151 -2 -5 -71 -60 -153 -123 -83 -62 -161 -128 -173
-147 -41 -59 -30 -98 92 -316 58 -105 106 -196 106 -201 0 -13 -219 -175 -238
-176 -16 -1 -275 421 -267 434 4 7 -83 122 -106 140 -3 3 -27 38 -53 78 -25
39 -50 72 -55 72 -5 0 -11 14 -15 32 -4 19 -23 48 -49 72 -34 32 -144 193
-201 293 -7 13 203 155 217 146 5 -3 60 -84 123 -179z"/>
<path d="M23045 16059 c-99 -19 -271 -83 -393 -146 -297 -152 -553 -374 -679
-588 -126 -215 -93 -415 83 -501 107 -52 290 -44 491 21 462 152 923 553 988
861 23 109 2 196 -65 268 -63 69 -122 90 -260 92 -63 2 -137 -2 -165 -7z"/>
<path d="M21440 14884 c-236 -43 -442 -127 -664 -271 -215 -139 -394 -307
-499 -465 -74 -113 -100 -184 -101 -278 -1 -66 3 -82 30 -130 34 -61 98 -111
167 -132 60 -18 229 -15 313 5 487 115 1062 562 1150 892 17 63 18 145 2 199
-18 61 -101 140 -169 161 -55 17 -183 27 -229 19z"/>
<path d="M2884 6341 c-108 -26 -195 -149 -313 -442 -75 -188 -229 -683 -376
-1209 -43 -151 -92 -326 -109 -389 l-33 -114 -89 -34 c-323 -122 -477 -188
-555 -240 -73 -48 -99 -151 -54 -219 43 -66 142 -84 209 -39 21 14 55 35 78
46 57 29 311 130 316 125 2 -2 -19 -91 -47 -198 -28 -106 -79 -308 -115 -448
-193 -760 -231 -911 -276 -1085 -80 -315 -120 -488 -120 -518 0 -71 58 -135
130 -144 49 -7 119 25 142 65 10 16 53 175 97 353 75 304 296 1173 462 1819
40 157 77 288 83 292 37 25 857 291 866 281 4 -5 37 -262 74 -573 112 -943
196 -1554 252 -1833 63 -312 134 -437 249 -437 50 0 135 39 163 74 39 50 94
252 151 561 11 61 35 184 52 275 125 670 233 1148 304 1347 45 125 116 268
133 268 33 0 125 -296 176 -565 15 -74 35 -202 47 -285 58 -429 90 -682 99
-790 20 -233 69 -547 102 -654 60 -194 144 -284 268 -285 72 0 123 27 189 100
99 111 201 353 386 908 274 821 507 1624 765 2634 142 560 196 751 231 831 39
89 14 175 -61 214 -43 22 -111 18 -149 -10 -77 -58 -103 -140 -376 -1208 -295
-1153 -739 -2587 -936 -3021 -29 -64 -32 -67 -40 -45 -11 27 -67 437 -99 721
-12 102 -32 268 -46 370 -14 102 -34 248 -44 325 -10 77 -33 209 -50 294 -28
143 -39 188 -92 376 -47 166 -166 358 -247 399 -86 44 -197 41 -273 -9 -70
-46 -171 -218 -251 -432 -87 -228 -248 -938 -358 -1573 -11 -63 -22 -122 -26
-130 -9 -21 -24 80 -93 600 -33 250 -62 466 -65 480 -3 14 -32 257 -65 540
-34 283 -65 541 -69 573 -8 57 -7 59 17 68 51 19 548 160 587 166 103 15 160
90 140 183 -10 46 -60 98 -106 110 -53 15 -107 3 -419 -87 -139 -40 -257 -70
-261 -65 -3 4 -25 147 -48 317 -71 519 -140 903 -193 1075 -46 149 -131 258
-221 285 -28 8 -53 15 -56 14 -3 -1 -20 -4 -37 -8z m62 -517 c14 -60 34 -161
45 -224 11 -63 21 -122 24 -130 8 -25 125 -858 125 -888 0 -27 -4 -29 -117
-66 -65 -21 -227 -73 -360 -117 -134 -43 -247 -79 -252 -79 -5 0 -3 21 5 48
139 499 187 664 265 912 50 162 96 311 101 330 6 19 35 96 65 170 30 74 57
141 60 148 9 21 13 10 39 -104z"/>
</g>
</svg>
